<svg width="30" height="40" viewBox="0 0 30 40" fill="none" xmlns="http://www.w3.org/2000/svg">
<path d="M16.6149 3.14661C15.6498 3.14661 14.7243 3.52996 14.042 4.21233C13.3596 4.8947 12.9763 5.8202 12.9763 6.78521C12.9763 7.75023 13.3596 8.67572 14.042 9.35809C14.7243 10.0405 15.6498 10.4238 16.6149 10.4238C17.5799 10.4238 18.5054 10.0405 19.1877 9.35809C19.8701 8.67572 20.2535 7.75023 20.2535 6.78521C20.2535 5.8202 19.8701 4.8947 19.1877 4.21233C18.5054 3.52996 17.5799 3.14661 16.6149 3.14661ZM10.5505 6.78521C10.5508 5.75675 10.8126 4.74524 11.3114 3.84581C11.8101 2.94638 12.5294 2.18857 13.4017 1.64363C14.2739 1.0987 15.2704 0.784553 16.2975 0.730725C17.3245 0.676897 18.3484 0.885158 19.2728 1.33593C20.1972 1.7867 20.9918 2.46516 21.5819 3.30753C22.1719 4.1499 22.538 5.12849 22.6458 6.1513C22.7536 7.1741 22.5995 8.20751 22.1979 9.15436C21.7964 10.1012 21.1607 10.9304 20.3505 11.5639C21.5496 12.0731 22.5733 12.9223 23.2953 14.0066L24.5688 15.9181L28.1808 18.4967C28.6417 18.8177 29.0344 19.2269 29.3361 19.7008C29.6377 20.1747 29.8423 20.7037 29.938 21.2572C30.0336 21.8107 30.0185 22.3777 29.8935 22.9254C29.7684 23.473 29.5359 23.9903 29.2095 24.4475C28.883 24.9046 28.469 25.2924 27.9916 25.5883C27.5142 25.8843 26.9828 26.0826 26.4282 26.1716C25.8735 26.2607 25.3068 26.2388 24.7607 26.1073C24.2146 25.9757 23.7 25.737 23.2468 25.4052L19.0018 22.373L18.7835 22.2056L18.7471 22.3123L21.0345 25.7714C21.641 26.6932 22.0121 27.7484 22.1116 28.8449L22.6622 34.9092C22.7422 36.0184 22.3838 37.1147 21.6639 37.9624C20.944 38.8101 19.9203 39.3414 18.8127 39.4422C17.7052 39.5429 16.6024 39.205 15.7414 38.5011C14.8804 37.7973 14.33 36.7836 14.2085 35.6782L13.6991 30.0699L12.5008 28.2578L9.03201 36.8765C8.60388 37.9094 7.78552 38.7317 6.75467 39.1647C5.72383 39.5978 4.56375 39.6067 3.52639 39.1894C2.48904 38.7722 1.65819 37.9625 1.2143 36.9363C0.770413 35.9101 0.749334 34.7501 1.15564 33.7085L4.42311 25.5871C3.7148 25.6168 3.01033 25.4687 2.37398 25.1562C1.73763 24.8438 1.18967 24.3769 0.780105 23.7983C0.37054 23.2196 0.112414 22.5476 0.029286 21.8436C-0.0538421 21.1395 0.0406745 20.4259 0.304209 19.7678L2.97252 13.097C3.22223 12.4736 3.61629 11.9183 4.12232 11.4768C4.62835 11.0353 5.2319 10.7201 5.8834 10.5572L9.61903 9.62332C10.1284 9.49395 10.6395 9.42765 11.1521 9.42441C10.7553 8.60124 10.5496 7.69904 10.5505 6.78521ZM11.3219 11.6973L6.47043 12.9102C6.19083 12.9798 5.93177 13.1149 5.71457 13.3043C5.49738 13.4936 5.32828 13.7318 5.22118 13.9994L2.55287 20.6701C2.45553 20.8934 2.40402 21.134 2.4014 21.3775C2.39877 21.6211 2.44508 21.8627 2.53759 22.088C2.63009 22.3134 2.76689 22.5178 2.9399 22.6893C3.1129 22.8608 3.31857 22.9957 3.54471 23.0862C3.77086 23.1767 4.01287 23.2209 4.2564 23.2161C4.49993 23.2113 4.74002 23.1576 4.96243 23.0583C5.18484 22.959 5.38504 22.816 5.55116 22.6379C5.71728 22.4597 5.84593 22.2501 5.92949 22.0213L8.03018 16.7744C8.08449 16.6252 8.16826 16.4885 8.2765 16.3723C8.38474 16.2562 8.51524 16.163 8.66023 16.0983C8.80523 16.0336 8.96175 15.9987 9.12049 15.9958C9.27924 15.9928 9.43695 16.0218 9.58425 16.0811C9.73155 16.1403 9.86543 16.2286 9.97792 16.3406C10.0904 16.4527 10.1792 16.5862 10.239 16.7333C10.2989 16.8803 10.3285 17.0379 10.3262 17.1967C10.3238 17.3555 10.2896 17.5121 10.2255 17.6574L3.4043 34.6133C3.30777 34.8361 3.25684 35.0761 3.25453 35.319C3.25221 35.5619 3.29856 35.8027 3.39083 36.0274C3.4831 36.2521 3.61943 36.4561 3.79177 36.6272C3.96412 36.7984 4.16899 36.9333 4.39431 37.024C4.61963 37.1147 4.86083 37.1594 5.10369 37.1554C5.34655 37.1514 5.58615 37.0988 5.80836 37.0007C6.03057 36.9026 6.23089 36.761 6.39751 36.5843C6.56413 36.4076 6.69367 36.1993 6.7785 35.9717L10.2473 27.353C10.4125 26.9426 10.6867 26.5852 11.0404 26.3194C11.3941 26.0536 11.8137 25.8896 12.2539 25.8451C12.694 25.8007 13.138 25.8774 13.5377 26.0671C13.9373 26.2568 14.2775 26.5521 14.5214 26.9212L15.972 29.1165C16.0269 29.2001 16.0602 29.2959 16.0691 29.3955L16.6197 35.4598C16.6638 35.9404 16.8969 36.3838 17.2679 36.6925C17.6389 37.0011 18.1173 37.1498 18.5979 37.1057C19.0785 37.0616 19.5219 36.8285 19.8305 36.4575C20.1392 36.0865 20.2878 35.6081 20.2438 35.1275L19.6931 29.0656C19.6293 28.3672 19.3935 27.6955 19.0066 27.1105L16.7653 23.7144C16.5543 23.3951 16.422 23.0304 16.379 22.6501C16.336 22.2698 16.3835 21.8848 16.5178 21.5264L17.4348 19.0764C17.5012 18.9003 17.615 18.7459 17.7635 18.6302C17.912 18.5146 18.0896 18.4421 18.2766 18.4208C18.4636 18.3995 18.6529 18.4301 18.8237 18.5094C18.9944 18.5887 19.14 18.7136 19.2444 18.8702L19.9502 19.9278C20.0731 20.1138 20.2252 20.2707 20.4063 20.3984L24.6513 23.4306C24.8453 23.5762 25.0663 23.6815 25.3015 23.7403C25.5368 23.7992 25.7814 23.8105 26.021 23.7735C26.2606 23.7365 26.4905 23.652 26.6969 23.5249C26.9034 23.3978 27.0825 23.2307 27.2234 23.0334C27.3644 22.8361 27.4646 22.6127 27.518 22.3762C27.5714 22.1396 27.577 21.8948 27.5344 21.6561C27.4918 21.4174 27.402 21.1896 27.2701 20.9861C27.1383 20.7827 26.9671 20.6076 26.7666 20.4712L23.1546 17.8902C22.9162 17.7192 22.7107 17.5063 22.5482 17.262L20.5518 14.271C20.3006 13.8951 19.9184 13.6261 19.4797 13.5166L12.2024 11.6973C11.9134 11.6252 11.611 11.6252 11.3219 11.6973Z" fill="#383838"/>
</svg>
