
<svg width="32" height="13" viewBox="0 0 32 13" fill="none" xmlns="http://www.w3.org/2000/svg">
<path d="M6.625 2.08813V6.77563M10.375 2.08813V6.77563M14.125 2.08813V8.65064M17.875 2.08813V6.77563M21.625 2.08813V6.77563M25.375 2.08813V8.65064M2.875 1.15063H29.125C29.6223 1.15063 30.0992 1.34818 30.4508 1.69981C30.8025 2.05144 31 2.52835 31 3.02563V10.5256C31 11.0229 30.8025 11.4998 30.4508 11.8515C30.0992 12.2031 29.6223 12.4006 29.125 12.4006H2.875C2.37772 12.4006 1.90081 12.2031 1.54917 11.8515C1.19754 11.4998 1 11.0229 1 10.5256V3.02563C1 2.52835 1.19754 2.05144 1.54917 1.69981C1.90081 1.34818 2.37772 1.15063 2.875 1.15063Z" stroke="#383838" stroke-linecap="round" stroke-linejoin="round"/>
</svg>
