<svg width="32" height="30" viewBox="0 0 32 30" fill="none" xmlns="http://www.w3.org/2000/svg">
<path d="M31 14.849H10.9649M3.89297 14.849H1M3.89297 14.849C3.89297 13.9115 4.26542 13.0123 4.92839 12.3493C5.59136 11.6864 6.49053 11.3139 7.42811 11.3139C8.36568 11.3139 9.26486 11.6864 9.92783 12.3493C10.5908 13.0123 10.9632 13.9115 10.9632 14.849C10.9632 15.7866 10.5908 16.6858 9.92783 17.3488C9.26486 18.0117 8.36568 18.3842 7.42811 18.3842C6.49053 18.3842 5.59136 18.0117 4.92839 17.3488C4.26542 16.6858 3.89297 15.7866 3.89297 14.849ZM31 25.5631H21.6789M21.6789 25.5631C21.6789 26.5009 21.3056 27.4011 20.6425 28.0642C19.9793 28.7273 19.08 29.0999 18.1422 29.0999C17.2046 29.0999 16.3054 28.7258 15.6424 28.0628C14.9795 27.3998 14.607 26.5007 14.607 25.5631M21.6789 25.5631C21.6789 24.6253 21.3056 23.7267 20.6425 23.0636C19.9793 22.4005 19.08 22.028 18.1422 22.028C17.2046 22.028 16.3054 22.4004 15.6424 23.0634C14.9795 23.7263 14.607 24.6255 14.607 25.5631M14.607 25.5631H1M31 4.13499H25.9649M18.893 4.13499H1M18.893 4.13499C18.893 3.19741 19.2654 2.29824 19.9284 1.63527C20.5914 0.972304 21.4905 0.599854 22.4281 0.599854C22.8923 0.599854 23.352 0.691293 23.7809 0.86895C24.2098 1.04661 24.5996 1.307 24.9278 1.63527C25.2561 1.96354 25.5165 2.35325 25.6941 2.78215C25.8718 3.21105 25.9632 3.67075 25.9632 4.13499C25.9632 4.59923 25.8718 5.05892 25.6941 5.48783C25.5165 5.91673 25.2561 6.30644 24.9278 6.63471C24.5996 6.96297 24.2098 7.22337 23.7809 7.40103C23.352 7.57868 22.8923 7.67012 22.4281 7.67012C21.4905 7.67012 20.5914 7.29767 19.9284 6.63471C19.2654 5.97174 18.893 5.07256 18.893 4.13499Z" stroke="#383838" stroke-miterlimit="10" stroke-linecap="round"/>
</svg>
