<svg width="25" height="25" viewBox="0 0 25 25" fill="none" xmlns="http://www.w3.org/2000/svg">
<path d="M10.5186 7.63155H24.0168C23.7107 6.90826 23.3378 6.22017 22.907 5.5741H10.5186V7.63155Z" fill="white"/>
<path d="M7.81393 24.0915H17.185C18.4299 23.5878 19.5751 22.8894 20.5829 22.0341H4.41602C5.42394 22.8894 6.56903 23.5877 7.81393 24.0915Z" fill="white"/>
<path d="M10.5186 1.45898V3.51644H21.1912C20.3535 2.70573 19.4028 2.01144 18.3649 1.45898H10.5186Z" fill="white"/>
<path d="M2.48144 19.9765H22.5189C22.9981 19.3354 23.4173 18.6468 23.7679 17.9191H1.23242C1.5831 18.6468 2.00229 19.3354 2.48144 19.9765Z" fill="white"/>
<path d="M0.0673828 13.8041C0.140471 14.509 0.272421 15.1963 0.457695 15.8615H24.5425C24.7278 15.1963 24.8597 14.509 24.9328 13.8041H10.5185H0.0673828Z" fill="white"/>
<path d="M10.5186 11.7465H24.9771C24.9353 11.0436 24.8361 10.356 24.6829 9.68909H10.5186V11.7465Z" fill="white"/>
<path d="M18.3648 1.45903C16.6158 0.5281 14.6198 -0.000244141 12.5002 -0.000244141C11.8258 -0.000244141 11.1641 0.0538401 10.5186 0.156685V1.45903H18.3648Z" fill="#F0011C"/>
<path d="M10.5186 5.57405H22.907C22.4093 4.82774 21.8335 4.13813 21.1912 3.5166H10.5186V5.57405Z" fill="#F0011C"/>
<path d="M10.5186 9.68904H24.6829C24.5195 8.97814 24.2957 8.29037 24.0168 7.63159H10.5186V9.68904Z" fill="#F0011C"/>
<path d="M10.5186 13.804H24.9329C24.9773 13.3754 25.0003 12.9404 25.0003 12.5001C25.0003 12.247 24.9918 11.9959 24.9771 11.7466H10.5186V13.804Z" fill="#F0011C"/>
<path d="M1.23168 17.9189H23.7671C24.0831 17.2629 24.343 16.575 24.5417 15.8615H0.457031C0.655771 16.575 0.915655 17.2629 1.23168 17.9189Z" fill="#F0011C"/>
<path d="M4.41672 22.034H20.5837C21.3032 21.4233 21.9533 20.7334 22.519 19.9766H2.48145C3.04715 20.7334 3.69724 21.4233 4.41672 22.034Z" fill="#F0011C"/>
<path d="M12.5001 25.0002C14.1571 25.0002 15.7384 24.677 17.1855 24.0914H7.81445C9.26156 24.677 10.8429 25.0002 12.5001 25.0002Z" fill="#F0011C"/>
<path d="M10.5182 11.7465V9.689V7.63156V5.5741V3.51666V1.4592V0.15686C10.1128 0.221478 9.71394 0.305317 9.32265 0.407837L9.35241 0.411855L9.01792 0.713115L9.09687 1.13851L8.68353 0.937702L8.2702 1.13851L8.34915 0.713115L8.34394 0.708445C7.22817 1.10169 6.18484 1.64817 5.23968 2.32367L5.27737 2.52654L5.08786 2.43444C4.70873 2.71409 4.34611 3.0147 4.00141 3.33453L4.25977 3.36917L3.92528 3.67043L4.00424 4.09583L3.5909 3.89502L3.30387 4.03447C3.0998 4.25601 2.90356 4.48505 2.71579 4.72093L2.98664 4.75732L2.65226 5.05858L2.73121 5.48397L2.31788 5.28316L2.28041 5.30141C2.04963 5.62841 1.83417 5.96702 1.63499 6.31618L1.71351 6.32671L1.54344 6.47995C1.49489 6.56802 1.44744 6.65675 1.40106 6.74613L1.45808 7.05325L1.28758 6.9705C0.926043 7.70215 0.634014 8.47408 0.420178 9.27806L0.837967 9.22191L1.04464 8.83496L1.2513 9.22191L1.71351 9.28392L1.37902 9.58518L1.45797 10.0106L1.04464 9.80977L0.63119 10.0106L0.710144 9.58518L0.410078 9.31487C0.297024 9.74515 0.206124 10.1844 0.139117 10.6316L0.440269 10.672L0.105885 10.9732L0.184839 11.3986L0.0545177 11.3353C0.0190051 11.7189 0 12.1073 0 12.5001C0 12.9405 0.0230228 13.3755 0.0675493 13.8041H10.5187V11.7465H10.5182ZM5.27726 5.48375L4.86392 5.28295L4.45048 5.48375L4.52943 5.05836L4.19505 4.7571L4.65725 4.69509L4.86392 4.30814L5.07059 4.69509L5.5328 4.7571L5.19841 5.05836L5.27726 5.48375ZM7.20363 4.69509L7.41029 4.30814L7.61696 4.69509L8.07917 4.7571L7.74479 5.05836L7.82374 5.48375L7.4104 5.28295L6.99707 5.48375L7.07602 5.05836L6.74164 4.7571L7.20363 4.69509ZM9.09687 4.09561L8.68353 3.8948L8.2702 4.09561L8.34915 3.67022L8.01466 3.36896L8.47687 3.30695L8.68353 2.92L8.8902 3.30695L9.35241 3.36896L9.01792 3.67022L9.09687 4.09561ZM7.41029 1.35082L7.61696 1.73777L8.07917 1.79978L7.74479 2.10104L7.82374 2.52643L7.4104 2.32563L6.99707 2.52643L7.07602 2.10104L6.74164 1.79978L7.20384 1.73777L7.41029 1.35082ZM5.46818 3.36907L5.93039 3.30705L6.13705 2.92011L6.34372 3.30705L6.80593 3.36907L6.47155 3.67033L6.5505 4.09572L6.13716 3.89491L5.72383 4.09572L5.80278 3.67033L5.46818 3.36907ZM2.73089 11.3984L2.31755 11.1976L1.90411 11.3984L1.98306 10.973L1.64867 10.6717L2.11088 10.6097L2.31755 10.2228L2.52422 10.6097L2.98642 10.6717L2.65204 10.973L2.73089 11.3984ZM4.19505 7.71453L4.65725 7.65251L4.86392 7.26546L5.07059 7.65251L5.5328 7.71453L5.19841 8.01579L5.27737 8.44118L4.86403 8.24037L4.45059 8.44118L4.52954 8.01579L4.19505 7.71453ZM4.00402 7.05293L3.59068 6.85212L3.17724 7.05293L3.25619 6.62765L2.9217 6.32639L3.3839 6.26437L3.59057 5.87743L3.79724 6.26437L4.25945 6.32639L3.92496 6.62765L4.00402 7.05293ZM6.5505 7.05293L6.13716 6.85212L5.72383 7.05293L5.80278 6.62765L5.46829 6.32639L5.9305 6.26437L6.13716 5.87743L6.34383 6.26437L6.80604 6.32639L6.47166 6.62765L6.5505 7.05293ZM5.46818 9.28371L5.93039 9.22169L6.13705 8.83475L6.34372 9.22169L6.80593 9.28371L6.47155 9.58497L6.5505 10.0104L6.13716 9.80955L5.72383 10.0104L5.80278 9.58497L5.46818 9.28371ZM7.82363 11.3984L7.41029 11.1976L6.99696 11.3984L7.07591 10.973L6.74153 10.6717L7.20374 10.6097L7.4104 10.2228L7.61707 10.6097L8.07928 10.6717L7.7449 10.973L7.82363 11.3984ZM4.65715 10.6097L4.86381 10.2228L5.07048 10.6097L5.53269 10.6717L5.19831 10.973L5.27726 11.3984L4.86392 11.1976L4.45048 11.3984L4.52943 10.973L4.19505 10.6717L4.65715 10.6097ZM9.09687 10.0104L8.68353 9.80955L8.2702 10.0104L8.34915 9.58497L8.01466 9.28371L8.47687 9.22169L8.68353 8.83475L8.8902 9.22169L9.35241 9.28371L9.01792 9.58497L9.09687 10.0104ZM7.61696 7.65241L8.07917 7.71442L7.74479 8.01568L7.82374 8.44107L7.4104 8.24026L6.99707 8.44107L7.07602 8.01568L6.74164 7.71442L7.20384 7.65241L7.41051 7.26535L7.61696 7.65241ZM9.09687 7.05293L8.68353 6.85212L8.2702 7.05293L8.34915 6.62765L8.01466 6.32639L8.47687 6.26437L8.68353 5.87743L8.8902 6.26437L9.35241 6.32639L9.01792 6.62765L9.09687 7.05293ZM1.64857 7.71453L2.11077 7.65251L2.31744 7.26546L2.52411 7.65251L2.98632 7.71453L2.65193 8.01579L2.73089 8.44118L2.31755 8.24037L1.90411 8.44118L1.98306 8.01579L1.64857 7.71453ZM2.92181 9.28371L3.38401 9.22169L3.59068 8.83475L3.79735 9.22169L4.25956 9.28371L3.92506 9.58497L4.00402 10.0104L3.59068 9.80955L3.17724 10.0104L3.25619 9.58497L2.92181 9.28371ZM1.45765 12.9677L1.04431 12.7669L0.630863 12.9677L0.709817 12.5423L0.375434 12.241L0.837641 12.179L1.04431 11.7921L1.25098 12.179L1.71318 12.241L1.37869 12.5423L1.45765 12.9677ZM4.00402 12.9677L3.59068 12.7669L3.17724 12.9677L3.25619 12.5423L2.9217 12.241L3.3839 12.179L3.59057 11.7921L3.79724 12.179L4.25945 12.241L3.92496 12.5423L4.00402 12.9677ZM6.5505 12.9677L6.13716 12.7669L5.72383 12.9677L5.80278 12.5423L5.46829 12.241L5.9305 12.179L6.13716 11.7921L6.34383 12.179L6.80604 12.241L6.47166 12.5423L6.5505 12.9677ZM9.09687 12.9677L8.68353 12.7669L8.2702 12.9677L8.34915 12.5423L8.01466 12.241L8.47687 12.179L8.68353 11.7921L8.8902 12.179L9.35241 12.241L9.01792 12.5423L9.09687 12.9677Z" fill="#083259"/>
<path d="M8.27051 1.13838L8.68384 0.93758L9.09718 1.13838L9.01823 0.712993L9.35272 0.411733L9.32296 0.407715C8.99108 0.494704 8.66473 0.595269 8.34425 0.708214L8.34946 0.712884L8.27051 1.13838Z" fill="white"/>
<path d="M5.23982 2.32361C5.18878 2.3601 5.13839 2.39713 5.08789 2.43438L5.2774 2.52648L5.23982 2.32361Z" fill="white"/>
<path d="M6.74121 1.79979L7.0757 2.10105L6.99675 2.52644L7.41009 2.32553L7.82342 2.52644L7.74458 2.10105L8.07896 1.79979L7.61675 1.73778L7.41009 1.35083L7.20342 1.73778L6.74121 1.79979Z" fill="white"/>
<path d="M4.00419 4.09564L3.92524 3.67025L4.25973 3.36899L4.00137 3.33435C3.75984 3.55839 3.527 3.79178 3.30371 4.03428L3.59074 3.89484L4.00419 4.09564Z" fill="white"/>
<path d="M5.72331 4.09565L6.13665 3.89485L6.55009 4.09565L6.47114 3.67037L6.80552 3.36911L6.34343 3.3071L6.13665 2.92004L5.92998 3.3071L5.46777 3.36911L5.80227 3.67037L5.72331 4.09565Z" fill="white"/>
<path d="M9.3524 3.36911L8.89019 3.3071L8.68352 2.92004L8.47685 3.3071L8.01465 3.36911L8.34903 3.67037L8.27008 4.09565L8.68352 3.89485L9.09686 4.09565L9.01791 3.67037L9.3524 3.36911Z" fill="white"/>
<path d="M2.73118 5.48373L2.65223 5.05834L2.98662 4.75708L2.71576 4.7207C2.56524 4.90978 2.41983 5.1032 2.28027 5.30107L2.31774 5.28282L2.73118 5.48373Z" fill="white"/>
<path d="M5.07086 4.69517L4.86419 4.30823L4.65741 4.69517L4.19531 4.75719L4.5297 5.05845L4.45074 5.48384L4.86419 5.28303L5.27752 5.48384L5.19857 5.05845L5.53306 4.75719L5.07086 4.69517Z" fill="white"/>
<path d="M6.99675 5.48384L7.41009 5.28303L7.82342 5.48384L7.74458 5.05845L8.07896 4.75719L7.61675 4.69517L7.41009 4.30823L7.20342 4.69517L6.74121 4.75719L7.0757 5.05845L6.99675 5.48384Z" fill="white"/>
<path d="M1.4006 6.74585C1.36204 6.82013 1.32436 6.89507 1.28711 6.97022L1.45761 7.05297L1.4006 6.74585Z" fill="white"/>
<path d="M1.63452 6.31592C1.60357 6.37022 1.57316 6.42485 1.54297 6.47969L1.71304 6.32645L1.63452 6.31592Z" fill="white"/>
<path d="M3.79742 6.26437L3.59075 5.87732L3.38408 6.26437L2.92188 6.32638L3.25637 6.62764L3.17741 7.05293L3.59075 6.85212L4.00409 7.05293L3.92513 6.62764L4.25963 6.32638L3.79742 6.26437Z" fill="white"/>
<path d="M6.34343 6.26437L6.13665 5.87732L5.92998 6.26437L5.46777 6.32638L5.80227 6.62764L5.72331 7.05293L6.13665 6.85212L6.55009 7.05293L6.47114 6.62764L6.80552 6.32638L6.34343 6.26437Z" fill="white"/>
<path d="M8.89019 6.26437L8.68352 5.87732L8.47685 6.26437L8.01465 6.32638L8.34903 6.62764L8.27008 7.05293L8.68352 6.85212L9.09686 7.05293L9.01791 6.62764L9.3524 6.32638L8.89019 6.26437Z" fill="white"/>
<path d="M1.90398 8.44111L2.31731 8.24031L2.73076 8.44111L2.6518 8.01572L2.98619 7.71457L2.52409 7.65245L2.31731 7.2655L2.11065 7.65245L1.64844 7.71457L1.98293 8.01572L1.90398 8.44111Z" fill="white"/>
<path d="M4.86419 8.24031L5.27752 8.44111L5.19857 8.01572L5.53306 7.71457L5.07086 7.65245L4.86419 7.2655L4.65741 7.65245L4.19531 7.71457L4.5297 8.01572L4.45074 8.44111L4.86419 8.24031Z" fill="white"/>
<path d="M7.20342 7.65245L6.74121 7.71457L7.0757 8.01572L6.99675 8.44111L7.41009 8.24031L7.82342 8.44111L7.74458 8.01572L8.07896 7.71457L7.61675 7.65245L7.41009 7.2655L7.20342 7.65245Z" fill="white"/>
<path d="M0.631158 10.0104L1.0446 9.80964L1.45794 10.0104L1.37899 9.58506L1.71348 9.2838L1.25127 9.22179L1.0446 8.83484L0.837936 9.22179L0.420147 9.27793C0.416889 9.2902 0.413414 9.30248 0.410156 9.31486L0.710221 9.58516L0.631158 10.0104Z" fill="white"/>
<path d="M3.17741 10.0104L3.59075 9.80963L4.00409 10.0104L3.92513 9.58504L4.25963 9.28378L3.79742 9.22177L3.59075 8.83472L3.38408 9.22177L2.92188 9.28378L3.25637 9.58504L3.17741 10.0104Z" fill="white"/>
<path d="M5.72331 10.0104L6.13665 9.80963L6.55009 10.0104L6.47114 9.58504L6.80552 9.28378L6.34343 9.22177L6.13665 8.83472L5.92998 9.22177L5.46777 9.28378L5.80227 9.58504L5.72331 10.0104Z" fill="white"/>
<path d="M9.3524 9.28378L8.89019 9.22177L8.68352 8.83472L8.47685 9.22177L8.01465 9.28378L8.34903 9.58504L8.27008 10.0104L8.68352 9.80963L9.09686 10.0104L9.01791 9.58504L9.3524 9.28378Z" fill="white"/>
<path d="M0.105078 10.973L0.439463 10.6717L0.13831 10.6313C0.103449 10.8639 0.0755398 11.0986 0.0537109 11.3351L0.184032 11.3984L0.105078 10.973Z" fill="white"/>
<path d="M2.52409 10.6097L2.31731 10.2228L2.11065 10.6097L1.64844 10.6718L1.98293 10.973L1.90398 11.3984L2.31731 11.1976L2.73076 11.3984L2.6518 10.973L2.98619 10.6718L2.52409 10.6097Z" fill="white"/>
<path d="M4.45074 11.3984L4.86419 11.1976L5.27752 11.3984L5.19857 10.973L5.53306 10.6718L5.07086 10.6097L4.86419 10.2228L4.65741 10.6097L4.19531 10.6718L4.5297 10.973L4.45074 11.3984Z" fill="white"/>
<path d="M7.61675 10.6097L7.41009 10.2228L7.20342 10.6097L6.74121 10.6718L7.0757 10.973L6.99675 11.3984L7.41009 11.1976L7.82342 11.3984L7.74458 10.973L8.07896 10.6718L7.61675 10.6097Z" fill="white"/>
<path d="M1.25054 12.1791L1.04387 11.7921L0.837097 12.1791L0.375 12.2412L0.709383 12.5423L0.630429 12.9677L1.04387 12.7669L1.45721 12.9677L1.37826 12.5423L1.71275 12.2412L1.25054 12.1791Z" fill="white"/>
<path d="M3.79742 12.1791L3.59075 11.7921L3.38408 12.1791L2.92188 12.2412L3.25637 12.5423L3.17741 12.9677L3.59075 12.7669L4.00409 12.9677L3.92513 12.5423L4.25963 12.2412L3.79742 12.1791Z" fill="white"/>
<path d="M6.34343 12.1791L6.13665 11.7921L5.92998 12.1791L5.46777 12.2412L5.80227 12.5423L5.72331 12.9677L6.13665 12.7669L6.55009 12.9677L6.47114 12.5423L6.80552 12.2412L6.34343 12.1791Z" fill="white"/>
<path d="M8.89019 12.1791L8.68352 11.7921L8.47685 12.1791L8.01465 12.2412L8.34903 12.5423L8.27008 12.9677L8.68352 12.7669L9.09686 12.9677L9.01791 12.5423L9.3524 12.2412L8.89019 12.1791Z" fill="white"/>
</svg>
