<svg width="23" height="24" viewBox="0 0 23 24" fill="none" xmlns="http://www.w3.org/2000/svg">
<path d="M0.880878 3.596C1.44088 3.119 2.18188 2.917 2.91588 3.034C3.31888 3.099 3.68788 3.27 3.99988 3.516V3.5C3.99988 2.122 5.12188 1 6.49988 1C7.13488 1 7.71488 1.238 8.15588 1.63C8.50988 0.679 9.42688 0 10.4999 0C11.8779 0 12.9999 1.122 12.9999 2.5V2.517C13.3119 2.271 13.6809 2.1 14.0839 2.034C14.8159 1.918 15.5589 2.119 16.1189 2.596C16.6789 3.072 16.9999 3.766 16.9999 4.501V15.102L18.7959 13.674C19.8019 12.734 21.3839 12.786 22.3249 13.793C23.2659 14.8 23.2139 16.386 22.2139 17.323L18.8599 20.557C16.5559 22.778 13.5259 24.001 10.3259 24.001H7.97388C3.57688 24.001 -0.00012207 20.424 -0.00012207 16.027V5.501C-0.00012207 4.767 0.320879 4.072 0.880878 3.596ZM0.999878 16.027C0.999878 19.873 4.12788 23.001 7.97388 23.001H10.3259C13.2649 23.001 16.0499 21.877 18.1659 19.837L21.5249 16.598C22.1289 16.032 22.1599 15.079 21.5949 14.475C21.3219 14.183 20.9509 14.015 20.5519 14.001C20.1429 13.994 19.7709 14.13 19.4489 14.429L15.9999 17.175V4.501C15.9999 4.061 15.8069 3.644 15.4709 3.358C15.1299 3.068 14.6929 2.95 14.2439 3.022C13.5349 3.137 12.9989 3.819 12.9989 4.608V11.001H11.9989V2.501C11.9989 1.674 11.3259 1.001 10.4989 1.001C9.67188 1.001 8.99888 1.674 8.99888 2.501V11.001H7.99888V3.501C7.99888 2.674 7.32588 2.001 6.49888 2.001C5.67188 2.001 4.99888 2.674 4.99888 3.501V11.001H3.99888V5.608C3.99888 4.819 3.46388 4.137 2.75488 4.022C2.30388 3.948 1.86888 4.068 1.52788 4.358C1.19188 4.644 0.998878 5.061 0.998878 5.501L0.999878 16.027Z" fill="#C1272D"/>
</svg>
