<svg width="20" height="24" viewBox="0 0 20 24" fill="none" xmlns="http://www.w3.org/2000/svg">
<path fill-rule="evenodd" clip-rule="evenodd" d="M6.78571 4.85725V2.71439H13.2143V4.85725H6.78571ZM4.64286 4.85725V2.0001C4.64286 1.62122 4.79337 1.25786 5.06128 0.989952C5.32919 0.722043 5.69255 0.571533 6.07143 0.571533L13.9286 0.571533C14.3075 0.571533 14.6708 0.722043 14.9387 0.989952C15.2066 1.25786 15.3571 1.62122 15.3571 2.0001V4.85725H18.9286C19.2127 4.85725 19.4853 4.97013 19.6862 5.17106C19.8871 5.37199 20 5.64452 20 5.92868C20 6.21284 19.8871 6.48536 19.6862 6.68629C19.4853 6.88722 19.2127 7.0001 18.9286 7.0001H18.4071L17.3457 20.7901C17.2906 21.5079 16.9666 22.1784 16.4385 22.6676C15.9104 23.1568 15.217 23.4286 14.4971 23.4287H5.50286C4.78297 23.4286 4.08963 23.1568 3.56149 22.6676C3.03336 22.1784 2.70936 21.5079 2.65429 20.7901L1.59286 7.0001H1.07143C0.787268 7.0001 0.514746 6.88722 0.313814 6.68629C0.112882 6.48536 0 6.21284 0 5.92868C0 5.64452 0.112882 5.37199 0.313814 5.17106C0.514746 4.97013 0.787268 4.85725 1.07143 4.85725H4.64286ZM3.74286 7.0001H16.2571L15.2086 20.6258C15.1949 20.8052 15.114 20.9728 14.9821 21.0952C14.8503 21.2175 14.677 21.2856 14.4971 21.2858H5.50286C5.32295 21.2856 5.14975 21.2175 5.01785 21.0952C4.88596 20.9728 4.8051 20.8052 4.79143 20.6258L3.74286 7.0001Z" fill="#383838"/>
</svg>
