<svg width="22" height="25" viewBox="0 0 22 25" fill="none" xmlns="http://www.w3.org/2000/svg">
<path d="M1 23.5004H21M3.0825 13.7342C2.54952 14.2683 2.25013 14.9921 2.25 15.7467V19.7504H6.27875C7.03375 19.7504 7.7575 19.4504 8.29125 18.9154L20.1663 7.03417C20.699 6.49992 20.9982 5.77619 20.9982 5.02167C20.9982 4.26715 20.699 3.54342 20.1663 3.00917L18.9938 1.83417C18.7293 1.56961 18.4154 1.35976 18.0698 1.21663C17.7242 1.0735 17.3538 0.999884 16.9797 1C16.6057 1.00012 16.2353 1.07396 15.8898 1.21731C15.5444 1.36065 15.2305 1.5707 14.9663 1.83542L3.0825 13.7342Z" stroke="black" stroke-width="1.5" stroke-linecap="round" stroke-linejoin="round"/>
</svg>
