<svg width="32" height="29" viewBox="0 0 32 29" fill="none" xmlns="http://www.w3.org/2000/svg">
<path d="M19.3333 7.66667V4.33333C19.3333 3.44928 18.9821 2.60143 18.357 1.97631C17.7319 1.35119 16.8841 1 16 1H4.33333C3.44928 1 2.60143 1.35119 1.97631 1.97631C1.35119 2.60143 1 3.44928 1 4.33333V24.3333C1 25.2174 1.35119 26.0652 1.97631 26.6904C2.60143 27.3155 3.44928 27.6667 4.33333 27.6667H16C16.8841 27.6667 17.7319 27.3155 18.357 26.6904C18.9821 26.0652 19.3333 25.2174 19.3333 24.3333V21" stroke="#C1272D" stroke-width="2" stroke-linecap="round" stroke-linejoin="round"/>
<path d="M11 14.3333H31M31 14.3333L26 9.33325M31 14.3333L26 19.3333" stroke="#C1272D" stroke-width="2" stroke-linecap="round" stroke-linejoin="round"/>
</svg>
