<svg width="30" height="30" viewBox="0 0 30 30" fill="none" xmlns="http://www.w3.org/2000/svg">
<path d="M15 0C6.73 0 0 6.73 0 15C0 23.27 6.73 30 15 30C23.27 30 30 23.27 30 15C30 6.73 23.27 0 15 0ZM15 28.3333C7.64833 28.3333 1.66667 22.3517 1.66667 15C1.66667 7.64834 7.64833 1.66667 15 1.66667C22.3517 1.66667 28.3333 7.64834 28.3333 15C28.3333 22.3517 22.3517 28.3333 15 28.3333ZM21.425 17.7483C21.7483 18.075 21.745 18.6017 21.42 18.925C21.3067 19.0367 18.6117 21.6667 15 21.6667C11.3883 21.6667 8.69333 19.0383 8.58 18.925C8.25333 18.6017 8.25 18.0767 8.57333 17.7483C8.89667 17.42 9.425 17.4183 9.75167 17.7383C9.775 17.7617 12.0917 19.9983 15 19.9983C17.9083 19.9983 20.225 17.7617 20.2483 17.7383C20.575 17.4167 21.1033 17.42 21.4267 17.7467L21.425 17.7483ZM8.33333 11.6667C8.33333 10.7467 9.08 10 10 10C10.92 10 11.6667 10.7467 11.6667 11.6667C11.6667 12.5867 10.92 13.3333 10 13.3333C9.08 13.3333 8.33333 12.5867 8.33333 11.6667ZM21.6667 11.6667C21.6667 12.5867 20.92 13.3333 20 13.3333C19.08 13.3333 18.3333 12.5867 18.3333 11.6667C18.3333 10.7467 19.08 10 20 10C20.92 10 21.6667 10.7467 21.6667 11.6667Z" fill="#C8A67D"/>
</svg>
